<svg width="307" height="40" viewBox="0 0 307 40" fill="none" xmlns="http://www.w3.org/2000/svg">
<path opacity="0.8" d="M16.682 0L0 11.0171L0 11.0378L12.8996 19.5524L16.682 17.0499V0Z" fill="#4A3AFF"/>
<path opacity="0.8" d="M0 28.0981L16.682 39.1047V22.0548L12.8996 19.5524L0 28.0669L0 28.0981Z" fill="#4A3AFF"/>
<path opacity="0.8" d="M34.9997 11.2872L18.3179 0.270142V17.3201L22.1106 19.8225L34.9997 11.308V11.2872Z" fill="#4A3AFF"/>
<path opacity="0.8" d="M18.3179 39.375L34.9997 28.3578V28.337L22.1106 19.8224L18.3179 22.3249V39.375Z" fill="#4A3AFF"/>
<path opacity="0.8" d="M0 11.0379L0 28.0671L12.8996 19.5525L0 11.0379Z" fill="#9E97FF"/>
<path opacity="0.8" d="M34.9998 28.3371V11.3079L22.1104 19.8225L34.9998 28.3371Z" fill="#9E97FF"/>
<path d="M62.6866 13.6533V30.1875H58.6783L49.9102 18.338V30.1875H46.5031V13.6533H50.311L59.2545 25.8535L59.2795 13.6533H62.6866ZM78.0506 24.9767H68.3806C68.4307 25.8452 68.7731 26.5132 69.4078 26.9809C70.0591 27.4318 70.8858 27.6573 71.8879 27.6573C72.4724 27.6573 72.9484 27.5988 73.3158 27.4819C73.7 27.3483 74.0173 27.1813 74.2678 26.9809C74.5183 26.7805 74.7354 26.58 74.9191 26.3796L77.6999 27.8827C77.249 28.4506 76.773 28.9266 76.2719 29.3107C75.7709 29.6948 75.1697 29.9871 74.4682 30.1875C73.7835 30.4046 72.9234 30.5132 71.8879 30.5132C70.3514 30.5132 69.0654 30.2293 68.0299 29.6614C66.9944 29.0936 66.2178 28.317 65.7001 27.3316C65.1824 26.3295 64.9235 25.1938 64.9235 23.9246C64.9235 22.672 65.1573 21.553 65.6249 20.5676C66.0926 19.5655 66.8107 18.7806 67.7794 18.2127C68.7648 17.6282 70.0257 17.3359 71.5622 17.3359C73.0987 17.3359 74.343 17.6282 75.2949 18.2127C76.2636 18.7806 76.965 19.5655 77.3993 20.5676C77.8335 21.553 78.0506 22.672 78.0506 23.9246V24.9767ZM68.4307 22.6219H74.5434C74.5267 21.9204 74.2678 21.3442 73.7668 20.8933C73.2657 20.4257 72.5309 20.1918 71.5622 20.1918C70.5935 20.1918 69.8587 20.4089 69.3576 20.8432C68.8566 21.2607 68.5476 21.8536 68.4307 22.6219ZM77.788 30.1875L82.6731 23.5989L78.2891 17.6616H81.9967L84.8777 21.6198L87.7586 17.6616H91.4663L87.0822 23.5989L91.9673 30.1875H88.2346L84.8777 25.578L81.5208 30.1875H77.788ZM96.5636 30.5132C95.4948 30.5132 94.6179 30.3378 93.9332 29.9871C93.2484 29.6197 92.7474 29.1437 92.4301 28.5591C92.1128 27.9746 91.9541 27.3316 91.9541 26.6301V26.2544C91.9541 25.8201 92.046 25.3442 92.2297 24.8264C92.4301 24.3087 92.7975 23.8494 93.332 23.4486C93.8664 23.031 94.6513 22.7722 95.6868 22.672L98.6429 22.3713C99.4112 22.2878 99.9122 22.2043 100.146 22.1208C100.397 22.0206 100.522 21.8369 100.522 21.5697C100.522 21.0018 100.305 20.6261 99.8705 20.4424C99.4362 20.2586 98.8183 20.1668 98.0166 20.1668C97.5323 20.1668 97.0897 20.2085 96.6889 20.292C96.3048 20.3588 95.9791 20.4841 95.7119 20.6678C95.4614 20.8348 95.2943 21.0853 95.2108 21.4194L92.0794 20.6678C92.2631 20.0499 92.5637 19.5321 92.9812 19.1146C93.3988 18.6804 93.8914 18.3297 94.4593 18.0624C95.0438 17.7952 95.6618 17.6115 96.3131 17.5113C96.9812 17.3944 97.6409 17.3359 98.2922 17.3359C99.7953 17.3693 100.956 17.6115 101.774 18.0624C102.593 18.4967 103.152 19.0979 103.453 19.8662C103.77 20.6344 103.929 21.5279 103.929 22.5467V30.1875H100.672V28.6844C100.488 28.985 100.196 29.2773 99.7953 29.5612C99.3945 29.8284 98.9102 30.0539 98.3423 30.2376C97.7912 30.4213 97.1983 30.5132 96.5636 30.5132ZM97.24 27.6823C97.9248 27.6823 98.501 27.5738 98.9686 27.3566C99.4529 27.1395 99.8287 26.889 100.096 26.6051C100.363 26.3045 100.513 26.0206 100.547 25.7533C100.597 25.5362 100.63 25.294 100.647 25.0268C100.68 24.7596 100.689 24.5007 100.672 24.2502C100.555 24.3671 100.338 24.4506 100.021 24.5007C99.7035 24.5508 99.2692 24.6093 98.7181 24.6761L96.8893 24.8765C96.3716 24.9433 95.9958 25.0853 95.762 25.3024C95.5449 25.5195 95.4363 25.7951 95.4363 26.1291V26.2794C95.4363 26.5466 95.4864 26.7888 95.5866 27.0059C95.6868 27.223 95.8622 27.39 96.1127 27.507C96.3799 27.6239 96.7557 27.6823 97.24 27.6823Z" fill="#37394F"/>
<path d="M121.269 25.6281C120.919 26.58 120.418 27.4318 119.766 28.1834C119.115 28.9349 118.297 29.5278 117.311 29.962C116.326 30.3796 115.182 30.5883 113.879 30.5883C112.075 30.5883 110.572 30.2126 109.37 29.461C108.167 28.7094 107.257 27.6823 106.639 26.3796C106.038 25.0602 105.737 23.5655 105.737 21.8954C105.737 20.2419 106.038 18.7639 106.639 17.4612C107.257 16.1418 108.167 15.1063 109.37 14.3548C110.572 13.5865 112.075 13.2024 113.879 13.2024C115.182 13.2024 116.318 13.4195 117.286 13.8537C118.272 14.288 119.09 14.8809 119.741 15.6324C120.409 16.384 120.919 17.2357 121.269 18.1877L117.787 18.6386C117.553 18.1543 117.261 17.7368 116.91 17.386C116.576 17.0186 116.159 16.743 115.658 16.5593C115.157 16.3589 114.564 16.2587 113.879 16.2587C112.744 16.2587 111.825 16.5009 111.123 16.9852C110.439 17.4528 109.938 18.1125 109.62 18.9643C109.32 19.8161 109.169 20.7931 109.169 21.8954C109.169 23.0143 109.32 23.9997 109.62 24.8515C109.938 25.7032 110.439 26.3713 111.123 26.8556C111.825 27.3232 112.744 27.5571 113.879 27.5571C114.564 27.5571 115.148 27.4569 115.633 27.2564C116.134 27.056 116.56 26.7805 116.91 26.4297C117.261 26.079 117.553 25.6615 117.787 25.1771L121.269 25.6281ZM130.419 29.9119C130.269 30.0121 130.06 30.0956 129.793 30.1624C129.542 30.2293 129.275 30.2877 128.991 30.3378C128.724 30.3879 128.474 30.413 128.24 30.413C126.603 30.4965 125.367 30.1624 124.532 29.4109C123.697 28.6426 123.28 27.3733 123.28 25.603V11.9498H126.611V25.2272C126.611 26.2293 126.803 26.8807 127.188 27.1813C127.572 27.4819 128.156 27.5821 128.941 27.4819C129.175 27.4485 129.401 27.4068 129.618 27.3566C129.835 27.3065 129.96 27.2731 129.993 27.2564L130.419 29.9119ZM137.724 30.5132C136.238 30.5132 134.993 30.2293 133.991 29.6614C133.006 29.0936 132.263 28.317 131.762 27.3316C131.277 26.3295 131.035 25.1938 131.035 23.9246C131.035 22.672 131.277 21.553 131.762 20.5676C132.263 19.5655 133.006 18.7806 133.991 18.2127C134.993 17.6282 136.238 17.3359 137.724 17.3359C139.194 17.3359 140.421 17.6282 141.407 18.2127C142.409 18.7806 143.152 19.5655 143.636 20.5676C144.12 21.553 144.363 22.672 144.363 23.9246C144.363 25.1938 144.12 26.3295 143.636 27.3316C143.152 28.317 142.409 29.0936 141.407 29.6614C140.421 30.2293 139.194 30.5132 137.724 30.5132ZM137.724 27.5571C138.442 27.5571 139.043 27.4235 139.528 27.1562C140.029 26.889 140.396 26.4882 140.63 25.9537C140.88 25.4193 141.006 24.7429 141.006 23.9246C141.006 23.1229 140.88 22.4548 140.63 21.9204C140.396 21.386 140.029 20.9851 139.528 20.7179C139.043 20.434 138.442 20.292 137.724 20.292C136.989 20.292 136.371 20.434 135.87 20.7179C135.386 20.9851 135.018 21.386 134.768 21.9204C134.517 22.4548 134.392 23.1229 134.392 23.9246C134.392 24.7429 134.517 25.4193 134.768 25.9537C135.018 26.4882 135.386 26.889 135.87 27.1562C136.371 27.4235 136.989 27.5571 137.724 27.5571ZM149.405 17.6616V24.0248C149.405 25.1938 149.597 26.0957 149.981 26.7304C150.382 27.3483 151.134 27.6573 152.236 27.6573C152.921 27.6573 153.53 27.4652 154.065 27.0811C154.616 26.6802 155.058 26.1625 155.392 25.5279C155.726 24.8765 155.893 24.1584 155.893 23.3734V17.6616H159.225V30.1875H155.893V28.3587C155.576 28.6927 155.217 29.0351 154.816 29.3858C154.415 29.7366 153.948 30.0205 153.413 30.2376C152.879 30.4714 152.253 30.5883 151.534 30.5883C150.165 30.5883 149.079 30.3128 148.278 29.7616C147.493 29.1938 146.925 28.4255 146.574 27.4569C146.24 26.4715 146.073 25.3525 146.073 24.0999V17.6616H149.405ZM167.356 30.5132C165.987 30.5132 164.86 30.2293 163.974 29.6614C163.106 29.0936 162.455 28.317 162.02 27.3316C161.603 26.3295 161.394 25.1938 161.394 23.9246C161.394 22.672 161.603 21.553 162.02 20.5676C162.455 19.5655 163.106 18.7806 163.974 18.2127C164.86 17.6282 165.987 17.3359 167.356 17.3359C168.292 17.3359 169.077 17.5196 169.711 17.8871C170.363 18.2378 170.922 18.6971 171.39 19.2649V11.9498H174.747V30.1875H171.39V28.5842C170.922 29.152 170.363 29.6197 169.711 29.9871C169.077 30.3378 168.292 30.5132 167.356 30.5132ZM164.751 23.9246C164.751 24.6928 164.851 25.3525 165.052 25.9036C165.269 26.4381 165.611 26.8473 166.079 27.1312C166.546 27.4151 167.156 27.5571 167.908 27.5571C168.592 27.5571 169.194 27.4235 169.711 27.1562C170.229 26.8723 170.63 26.4631 170.914 25.9287C171.214 25.3776 171.365 24.7095 171.365 23.9246C171.365 23.1396 171.214 22.4799 170.914 21.9455C170.63 21.411 170.229 21.0018 169.711 20.7179C169.194 20.434 168.592 20.292 167.908 20.292C167.156 20.292 166.546 20.4424 166.079 20.743C165.611 21.0269 165.269 21.4444 165.052 21.9956C164.851 22.53 164.751 23.173 164.751 23.9246Z" fill="#4B12C1"/>
</svg>
