<svg width="175" height="39" viewBox="0 0 175 39" fill="none" xmlns="http://www.w3.org/2000/svg">
<path opacity="0.8" d="M16.2053 0L0 10.7023L0 10.7225L12.5311 18.9938L16.2053 16.5628V0Z" fill="white" fill-opacity="0.82"/>
<path opacity="0.8" d="M0 27.2957L16.2053 37.9878V21.4251L12.5311 18.9941L0 27.2654L0 27.2957Z" fill="white" fill-opacity="0.82"/>
<path opacity="0.8" d="M33.9996 10.965L17.7944 0.262695V16.8255L21.4788 19.2565L33.9996 10.9852V10.965Z" fill="white" fill-opacity="0.82"/>
<path opacity="0.8" d="M17.7944 38.2498L33.9996 27.5474V27.5272L21.4788 19.2559L17.7944 21.6868V38.2498Z" fill="white" fill-opacity="0.82"/>
<path opacity="0.8" d="M0 10.7227L0 27.2653L12.5311 18.994L0 10.7227Z" fill="white"/>
<path opacity="0.8" d="M34.0001 27.5275V10.9849L21.479 19.2562L34.0001 27.5275Z" fill="white"/>
<path d="M61.6866 13.0908V29.625H57.6783L48.9102 17.7755V29.625H45.5031V13.0908H49.311L58.2545 25.291L58.2795 13.0908H61.6866ZM77.0506 24.4142H67.3806C67.4307 25.2827 67.7731 25.9507 68.4078 26.4184C69.0591 26.8693 69.8858 27.0948 70.8879 27.0948C71.4724 27.0948 71.9484 27.0363 72.3158 26.9194C72.7 26.7858 73.0173 26.6188 73.2678 26.4184C73.5183 26.218 73.7354 26.0175 73.9191 25.8171L76.6999 27.3202C76.249 27.8881 75.773 28.3641 75.2719 28.7482C74.7709 29.1323 74.1697 29.4246 73.4682 29.625C72.7835 29.8421 71.9234 29.9507 70.8879 29.9507C69.3514 29.9507 68.0654 29.6668 67.0299 29.0989C65.9944 28.5311 65.2178 27.7545 64.7001 26.7691C64.1824 25.767 63.9235 24.6313 63.9235 23.3621C63.9235 22.1095 64.1573 20.9905 64.6249 20.0051C65.0926 19.003 65.8107 18.2181 66.7794 17.6502C67.7648 17.0657 69.0257 16.7734 70.5622 16.7734C72.0987 16.7734 73.343 17.0657 74.2949 17.6502C75.2636 18.2181 75.965 19.003 76.3993 20.0051C76.8335 20.9905 77.0506 22.1095 77.0506 23.3621V24.4142ZM67.4307 22.0594H73.5434C73.5267 21.3579 73.2678 20.7817 72.7668 20.3308C72.2657 19.8632 71.5309 19.6293 70.5622 19.6293C69.5935 19.6293 68.8587 19.8464 68.3576 20.2807C67.8566 20.6982 67.5476 21.2911 67.4307 22.0594ZM76.788 29.625L81.6731 23.0364L77.2891 17.0991H80.9967L83.8777 21.0573L86.7586 17.0991H90.4663L86.0822 23.0364L90.9673 29.625H87.2346L83.8777 25.0155L80.5208 29.625H76.788ZM95.5636 29.9507C94.4948 29.9507 93.6179 29.7753 92.9332 29.4246C92.2484 29.0572 91.7474 28.5812 91.4301 27.9966C91.1128 27.4121 90.9541 26.7691 90.9541 26.0676V25.6919C90.9541 25.2576 91.046 24.7817 91.2297 24.2639C91.4301 23.7462 91.7975 23.2869 92.332 22.8861C92.8664 22.4685 93.6513 22.2097 94.6868 22.1095L97.6429 21.8088C98.4112 21.7253 98.9122 21.6418 99.146 21.5583C99.3966 21.4581 99.5218 21.2744 99.5218 21.0072C99.5218 20.4393 99.3047 20.0636 98.8705 19.8799C98.4362 19.6961 97.8183 19.6043 97.0166 19.6043C96.5323 19.6043 96.0897 19.646 95.6889 19.7295C95.3048 19.7963 94.9791 19.9216 94.7119 20.1053C94.4614 20.2723 94.2943 20.5228 94.2108 20.8569L91.0794 20.1053C91.2631 19.4874 91.5637 18.9696 91.9812 18.5521C92.3988 18.1179 92.8914 17.7672 93.4593 17.4999C94.0438 17.2327 94.6618 17.049 95.3131 16.9488C95.9812 16.8319 96.6409 16.7734 97.2922 16.7734C98.7953 16.8068 99.9561 17.049 100.774 17.4999C101.593 17.9342 102.152 18.5354 102.453 19.3037C102.77 20.0719 102.929 20.9654 102.929 21.9842V29.625H99.6721V28.1219C99.4884 28.4225 99.1961 28.7148 98.7953 28.9987C98.3945 29.2659 97.9102 29.4914 97.3423 29.6751C96.7912 29.8588 96.1983 29.9507 95.5636 29.9507ZM96.24 27.1198C96.9248 27.1198 97.501 27.0113 97.9686 26.7941C98.4529 26.577 98.8287 26.3265 99.0959 26.0426C99.3632 25.742 99.5135 25.4581 99.5469 25.1908C99.597 24.9737 99.6304 24.7315 99.6471 24.4643C99.6805 24.1971 99.6888 23.9382 99.6721 23.6877C99.5552 23.8046 99.3381 23.8881 99.0208 23.9382C98.7035 23.9883 98.2692 24.0468 97.7181 24.1136L95.8893 24.314C95.3716 24.3808 94.9958 24.5228 94.762 24.7399C94.5449 24.957 94.4363 25.2326 94.4363 25.5666V25.7169C94.4363 25.9841 94.4864 26.2263 94.5866 26.4434C94.6868 26.6605 94.8622 26.8275 95.1127 26.9445C95.3799 27.0614 95.7557 27.1198 96.24 27.1198ZM120.269 25.0656C119.919 26.0175 119.418 26.8693 118.766 27.6209C118.115 28.3724 117.297 28.9653 116.311 29.3995C115.326 29.8171 114.182 30.0258 112.879 30.0258C111.075 30.0258 109.572 29.6501 108.37 28.8985C107.167 28.1469 106.257 27.1198 105.639 25.8171C105.038 24.4977 104.737 23.003 104.737 21.3329C104.737 19.6794 105.038 18.2014 105.639 16.8987C106.257 15.5793 107.167 14.5438 108.37 13.7923C109.572 13.024 111.075 12.6399 112.879 12.6399C114.182 12.6399 115.318 12.857 116.286 13.2912C117.272 13.7255 118.09 14.3184 118.741 15.0699C119.409 15.8215 119.919 16.6732 120.269 17.6252L116.787 18.0761C116.553 17.5918 116.261 17.1743 115.91 16.8235C115.576 16.4561 115.159 16.1805 114.658 15.9968C114.157 15.7964 113.564 15.6962 112.879 15.6962C111.744 15.6962 110.825 15.9384 110.123 16.4227C109.439 16.8903 108.938 17.55 108.62 18.4018C108.32 19.2536 108.169 20.2306 108.169 21.3329C108.169 22.4518 108.32 23.4372 108.62 24.289C108.938 25.1407 109.439 25.8088 110.123 26.2931C110.825 26.7607 111.744 26.9946 112.879 26.9946C113.564 26.9946 114.148 26.8944 114.633 26.6939C115.134 26.4935 115.56 26.218 115.91 25.8672C116.261 25.5165 116.553 25.099 116.787 24.6146L120.269 25.0656ZM129.419 29.3494C129.269 29.4496 129.06 29.5331 128.793 29.5999C128.542 29.6668 128.275 29.7252 127.991 29.7753C127.724 29.8254 127.474 29.8505 127.24 29.8505C125.603 29.934 124.367 29.5999 123.532 28.8484C122.697 28.0801 122.28 26.8108 122.28 25.0405V11.3873H125.611V24.6647C125.611 25.6668 125.803 26.3182 126.188 26.6188C126.572 26.9194 127.156 27.0196 127.941 26.9194C128.175 26.886 128.401 26.8443 128.618 26.7941C128.835 26.744 128.96 26.7106 128.993 26.6939L129.419 29.3494ZM136.724 29.9507C135.238 29.9507 133.993 29.6668 132.991 29.0989C132.006 28.5311 131.263 27.7545 130.762 26.7691C130.277 25.767 130.035 24.6313 130.035 23.3621C130.035 22.1095 130.277 20.9905 130.762 20.0051C131.263 19.003 132.006 18.2181 132.991 17.6502C133.993 17.0657 135.238 16.7734 136.724 16.7734C138.194 16.7734 139.421 17.0657 140.407 17.6502C141.409 18.2181 142.152 19.003 142.636 20.0051C143.12 20.9905 143.363 22.1095 143.363 23.3621C143.363 24.6313 143.12 25.767 142.636 26.7691C142.152 27.7545 141.409 28.5311 140.407 29.0989C139.421 29.6668 138.194 29.9507 136.724 29.9507ZM136.724 26.9946C137.442 26.9946 138.043 26.861 138.528 26.5937C139.029 26.3265 139.396 25.9257 139.63 25.3912C139.88 24.8568 140.006 24.1804 140.006 23.3621C140.006 22.5604 139.88 21.8923 139.63 21.3579C139.396 20.8235 139.029 20.4226 138.528 20.1554C138.043 19.8715 137.442 19.7295 136.724 19.7295C135.989 19.7295 135.371 19.8715 134.87 20.1554C134.386 20.4226 134.018 20.8235 133.768 21.3579C133.517 21.8923 133.392 22.5604 133.392 23.3621C133.392 24.1804 133.517 24.8568 133.768 25.3912C134.018 25.9257 134.386 26.3265 134.87 26.5937C135.371 26.861 135.989 26.9946 136.724 26.9946ZM148.405 17.0991V23.4623C148.405 24.6313 148.597 25.5332 148.981 26.1679C149.382 26.7858 150.134 27.0948 151.236 27.0948C151.921 27.0948 152.53 26.9027 153.065 26.5186C153.616 26.1177 154.058 25.6 154.392 24.9654C154.726 24.314 154.893 23.5959 154.893 22.8109V17.0991H158.225V29.625H154.893V27.7962C154.576 28.1302 154.217 28.4726 153.816 28.8233C153.415 29.1741 152.948 29.458 152.413 29.6751C151.879 29.9089 151.253 30.0258 150.534 30.0258C149.165 30.0258 148.079 29.7503 147.278 29.1991C146.493 28.6313 145.925 27.863 145.574 26.8944C145.24 25.909 145.073 24.79 145.073 23.5374V17.0991H148.405ZM166.356 29.9507C164.987 29.9507 163.86 29.6668 162.974 29.0989C162.106 28.5311 161.455 27.7545 161.02 26.7691C160.603 25.767 160.394 24.6313 160.394 23.3621C160.394 22.1095 160.603 20.9905 161.02 20.0051C161.455 19.003 162.106 18.2181 162.974 17.6502C163.86 17.0657 164.987 16.7734 166.356 16.7734C167.292 16.7734 168.077 16.9571 168.711 17.3246C169.363 17.6753 169.922 18.1346 170.39 18.7024V11.3873H173.747V29.625H170.39V28.0217C169.922 28.5895 169.363 29.0572 168.711 29.4246C168.077 29.7753 167.292 29.9507 166.356 29.9507ZM163.751 23.3621C163.751 24.1303 163.851 24.79 164.052 25.3411C164.269 25.8756 164.611 26.2848 165.079 26.5687C165.546 26.8526 166.156 26.9946 166.908 26.9946C167.592 26.9946 168.194 26.861 168.711 26.5937C169.229 26.3098 169.63 25.9006 169.914 25.3662C170.214 24.8151 170.365 24.147 170.365 23.3621C170.365 22.5771 170.214 21.9174 169.914 21.383C169.63 20.8485 169.229 20.4393 168.711 20.1554C168.194 19.8715 167.592 19.7295 166.908 19.7295C166.156 19.7295 165.546 19.8799 165.079 20.1805C164.611 20.4644 164.269 20.8819 164.052 21.4331C163.851 21.9675 163.751 22.6105 163.751 23.3621Z" fill="#FAFAFA"/>
</svg>
