<svg width="12" height="12" viewBox="0 0 12 12" fill="none" xmlns="http://www.w3.org/2000/svg">
<g opacity="0.8">
<path d="M1.5 6C3.75 6 6 3.75 6 1.5C6 3.75 8.25 6 10.5 6C8.25 6 6 8.25 6 10.5C6 8.25 3.75 6 1.5 6Z" stroke="#4B12C1" stroke-width="0.75" stroke-linejoin="round"/>
<path d="M1 9.75C1.41666 9.75 2.25 8.91665 2.25 8.5C2.25 8.91665 3.08334 9.75 3.5 9.75C3.08334 9.75 2.25 10.5834 2.25 11C2.25 10.5834 1.41666 9.75 1 9.75Z" stroke="#4B12C1" stroke-width="0.75" stroke-linejoin="round"/>
<path d="M8 2.5C8.5 2.5 9.5 1.5 9.5 1C9.5 1.5 10.5 2.5 11 2.5C10.5 2.5 9.5 3.5 9.5 4C9.5 3.5 8.5 2.5 8 2.5Z" stroke="#4B12C1" stroke-width="0.75" stroke-linejoin="round"/>
</g>
</svg>
