<svg width="15" height="15" viewBox="0 0 15 15" fill="none" xmlns="http://www.w3.org/2000/svg">
<path d="M6.68256 0.550635C6.9211 -0.183534 7.95976 -0.183537 8.1983 0.550633L9.40843 4.27504C9.51512 4.60337 9.82108 4.82566 10.1663 4.82566H14.0824C14.8543 4.82566 15.1753 5.81348 14.5508 6.26722L11.3826 8.56903C11.1033 8.77195 10.9864 9.13164 11.0931 9.45997L12.3033 13.1844C12.5418 13.9185 11.7015 14.529 11.077 14.0753L7.90882 11.7735C7.62953 11.5706 7.25133 11.5706 6.97204 11.7735L3.80387 14.0753C3.17935 14.529 2.33906 13.9185 2.57761 13.1844L3.78774 9.45997C3.89442 9.13164 3.77755 8.77195 3.49826 8.56903L0.330091 6.26723C-0.294431 5.81348 0.0265293 4.82566 0.798481 4.82566H4.71455C5.05978 4.82566 5.36574 4.60337 5.47242 4.27504L6.68256 0.550635Z" fill="#FF7F22"/>
</svg>
